<svg xmlns="http://www.w3.org/2000/svg" width="33.009" height="33.949" viewBox="0 0 33.009 33.949">
  <path id="shopping_cart_29dp_E8EAED_FILL0_wght300_GRAD0_opsz24" d="M69.941-836.052a2.966,2.966,0,0,1-2.179-.9,2.967,2.967,0,0,1-.9-2.179,2.967,2.967,0,0,1,.9-2.179,2.967,2.967,0,0,1,2.179-.9,2.967,2.967,0,0,1,2.179.9,2.967,2.967,0,0,1,.9,2.179,2.967,2.967,0,0,1-.9,2.179A2.967,2.967,0,0,1,69.941-836.052Zm17.042,0a2.967,2.967,0,0,1-2.179-.9,2.967,2.967,0,0,1-.9-2.179,2.967,2.967,0,0,1,.9-2.179,2.967,2.967,0,0,1,2.179-.9,2.967,2.967,0,0,1,2.179.9,2.967,2.967,0,0,1,.9,2.179,2.967,2.967,0,0,1-.9,2.179A2.966,2.966,0,0,1,86.983-836.052ZM67.939-863.846l4.457,9.333H84.383a.491.491,0,0,0,.271-.076.662.662,0,0,0,.2-.212l4.717-8.572a.318.318,0,0,0,.017-.33.306.306,0,0,0-.287-.144Zm-1.264-2.637H91.088a1.788,1.788,0,0,1,1.631.918,1.8,1.8,0,0,1,.053,1.875l-5.634,10.2a3.175,3.175,0,0,1-1.144,1.185,2.991,2.991,0,0,1-1.56.425H71.6l-2.036,3.719a.4.4,0,0,0-.008.44.408.408,0,0,0,.38.237H90.06v2.637H69.941a2.87,2.87,0,0,1-2.642-1.516,2.9,2.9,0,0,1-.062-3.028l2.509-4.51-6.4-13.465H60V-870h5Zm5.721,11.97h0Z" transform="translate(-60 870)"/>
</svg>
