<svg xmlns="http://www.w3.org/2000/svg" width="25.526" height="25.526" viewBox="0 0 25.526 25.526">
  <path id="edit_16dp_E8EAED_FILL0_wght400_GRAD0_opsz20" d="M146.735-793.209h1.937l14.244-14.244-1.937-1.937-14.244,14.244ZM144-790.474v-5.812L162.916-815.2a2.632,2.632,0,0,1,.906-.608,2.8,2.8,0,0,1,1.026-.19,2.849,2.849,0,0,1,1.032.19,2.616,2.616,0,0,1,.912.608l1.937,1.937a2.616,2.616,0,0,1,.608.912,2.787,2.787,0,0,1,.19,1.008,2.9,2.9,0,0,1-.191,1.046,2.566,2.566,0,0,1-.607.909l-18.916,18.916Zm22.791-20.854-1.937-1.937Zm-4.86,2.923-.952-.986,1.937,1.937Z" transform="translate(-144 816)"/>
</svg>
