<svg xmlns="http://www.w3.org/2000/svg" width="31.211" height="28.285" viewBox="0 0 31.211 28.285">
  <path id="favorite_16dp_E8EAED_FILL0_wght400_GRAD0_opsz20" d="M111.606-811.715l-2.032-1.829q-4.064-3.617-6.706-6.2a42.809,42.809,0,0,1-4.166-4.592,14.06,14.06,0,0,1-2.113-3.678A10.167,10.167,0,0,1,96-831.425a8.286,8.286,0,0,1,2.479-6.1,8.286,8.286,0,0,1,6.1-2.479,9.2,9.2,0,0,1,3.861.853,8.944,8.944,0,0,1,3.17,2.4,8.944,8.944,0,0,1,3.17-2.4,9.2,9.2,0,0,1,3.861-.853,8.286,8.286,0,0,1,6.1,2.479,8.286,8.286,0,0,1,2.479,6.1,10.137,10.137,0,0,1-.569,3.373,13.529,13.529,0,0,1-2.093,3.617,45.86,45.86,0,0,1-4.186,4.613q-2.662,2.621-6.807,6.36Zm0-3.942q3.779-3.373,6.218-5.75a51.5,51.5,0,0,0,3.881-4.145,13.131,13.131,0,0,0,2.012-3.149,7.116,7.116,0,0,0,.569-2.723,5.465,5.465,0,0,0-1.626-4.023,5.465,5.465,0,0,0-4.023-1.626,6.12,6.12,0,0,0-2.662.589,6.322,6.322,0,0,0-2.134,1.646l-1.422,1.666h-1.626l-1.422-1.666a6.215,6.215,0,0,0-2.174-1.646,6.207,6.207,0,0,0-2.621-.589,5.464,5.464,0,0,0-4.023,1.626,5.465,5.465,0,0,0-1.626,4.023,7.116,7.116,0,0,0,.528,2.662,12.724,12.724,0,0,0,1.93,3.068,48.108,48.108,0,0,0,3.861,4.145Q107.7-819.152,111.606-815.657ZM111.606-826.386Z" transform="translate(-96 840)"/>
</svg>
