<svg xmlns="http://www.w3.org/2000/svg" width="17.778" height="13.385" viewBox="0 0 17.778 13.385">
  <path id="mail_16dp_E8EAED_FILL0_wght400_GRAD0_opsz20" d="M97.667-754.615a1.6,1.6,0,0,1-1.177-.492,1.616,1.616,0,0,1-.49-1.182v-10.045a1.6,1.6,0,0,1,.49-1.179A1.607,1.607,0,0,1,97.667-768h14.444a1.6,1.6,0,0,1,1.177.492,1.616,1.616,0,0,1,.49,1.182v10.044a1.6,1.6,0,0,1-.49,1.179,1.607,1.607,0,0,1-1.177.488Zm7.222-5.577-7.222-4.16v8.064h14.444v-8.064Zm0-1.975,7.222-4.16H97.667Zm-7.222-2.184v0Z" transform="translate(-96 768)"/>
</svg>
