<svg xmlns="http://www.w3.org/2000/svg" width="26.517" height="33.929" viewBox="0 0 26.517 33.929">
  <path id="notifications_29dp_E8EAED_FILL0_wght300_GRAD0_opsz24" d="M180-831.035v-2.651h3.2v-13.191a9.784,9.784,0,0,1,2.2-6.306,9.753,9.753,0,0,1,5.652-3.505v-1.1a2.133,2.133,0,0,1,.644-1.565,2.128,2.128,0,0,1,1.564-.644,2.135,2.135,0,0,1,1.566.644,2.129,2.129,0,0,1,.646,1.565v1.1a9.753,9.753,0,0,1,5.652,3.505,9.784,9.784,0,0,1,2.2,6.306v13.191h3.2v2.651ZM193.259-843.987Zm0,17.916A3.071,3.071,0,0,1,191-827.01a3.081,3.081,0,0,1-.937-2.257h6.392a3.074,3.074,0,0,1-.94,2.259A3.086,3.086,0,0,1,193.256-826.071Zm-7.408-7.615H200.67v-13.191a7.141,7.141,0,0,0-2.17-5.24,7.141,7.141,0,0,0-5.241-2.171,7.141,7.141,0,0,0-5.241,2.171,7.141,7.141,0,0,0-2.17,5.24Z" transform="translate(-180 860)" fill="#666"/>
</svg>
