<svg xmlns="http://www.w3.org/2000/svg" width="31.498" height="20.998" viewBox="0 0 31.498 20.998">
  <path id="payments_16dp_E8EAED_FILL0_wght400_GRAD0_opsz20" d="M66.374-755.751a4.219,4.219,0,0,1-3.1-1.276,4.219,4.219,0,0,1-1.276-3.1,4.219,4.219,0,0,1,1.276-3.1,4.219,4.219,0,0,1,3.1-1.276,4.219,4.219,0,0,1,3.1,1.276,4.218,4.218,0,0,1,1.276,3.1,4.219,4.219,0,0,1-1.276,3.1A4.219,4.219,0,0,1,66.374-755.751Zm-10.5,3.5a2.526,2.526,0,0,1-1.854-.772,2.53,2.53,0,0,1-.771-1.855v-10.507a2.51,2.51,0,0,1,.771-1.849A2.537,2.537,0,0,1,55.874-768h21a2.526,2.526,0,0,1,1.854.772,2.53,2.53,0,0,1,.771,1.855v10.507a2.51,2.51,0,0,1-.771,1.849,2.537,2.537,0,0,1-1.854.766Zm2.625-2.625H74.248a2.537,2.537,0,0,1,.771-1.864,2.53,2.53,0,0,1,1.854-.77v-5.241a2.527,2.527,0,0,1-1.854-.771,2.527,2.527,0,0,1-.771-1.854H58.5a2.537,2.537,0,0,1-.771,1.864,2.53,2.53,0,0,1-1.854.77v5.241a2.527,2.527,0,0,1,1.854.771A2.528,2.528,0,0,1,58.5-754.876ZM75.123-747h-24.5a2.527,2.527,0,0,1-1.854-.771A2.528,2.528,0,0,1,48-749.626V-764.5h2.625v14.874h24.5Zm-19.249-7.874v0Z" transform="translate(-48 768)"/>
</svg>
