<svg xmlns="http://www.w3.org/2000/svg" width="33.737" height="33.737" viewBox="0 0 33.737 33.737">
  <path id="account_circle_29dp_E8EAED_FILL0_wght300_GRAD0_opsz24" d="M106.256-833.734a19.378,19.378,0,0,1,4.933-2.653,16.451,16.451,0,0,1,5.68-.973,16.451,16.451,0,0,1,5.68.973,19.378,19.378,0,0,1,4.933,2.653,14,14,0,0,0,2.624-4.214,13.693,13.693,0,0,0,.968-5.183,13.694,13.694,0,0,0-4.151-10.055,13.694,13.694,0,0,0-10.055-4.151,13.694,13.694,0,0,0-10.055,4.151,13.694,13.694,0,0,0-4.151,10.055,13.693,13.693,0,0,0,.968,5.183A14,14,0,0,0,106.256-833.734Zm10.613-8.065a5.576,5.576,0,0,1-4.1-1.669,5.575,5.575,0,0,1-1.67-4.1,5.576,5.576,0,0,1,1.669-4.1,5.574,5.574,0,0,1,4.1-1.67,5.576,5.576,0,0,1,4.1,1.669,5.575,5.575,0,0,1,1.67,4.1,5.576,5.576,0,0,1-1.669,4.1A5.574,5.574,0,0,1,116.869-841.8Zm0,15.537a16.533,16.533,0,0,1-6.592-1.321,16.938,16.938,0,0,1-5.356-3.6,16.935,16.935,0,0,1-3.6-5.356A16.532,16.532,0,0,1,100-843.131a16.533,16.533,0,0,1,1.322-6.592,16.937,16.937,0,0,1,3.6-5.356,16.935,16.935,0,0,1,5.356-3.6A16.533,16.533,0,0,1,116.869-860a16.533,16.533,0,0,1,6.592,1.321,16.935,16.935,0,0,1,5.356,3.6,16.937,16.937,0,0,1,3.6,5.356,16.533,16.533,0,0,1,1.322,6.592,16.532,16.532,0,0,1-1.322,6.592,16.936,16.936,0,0,1-3.6,5.356,16.938,16.938,0,0,1-5.356,3.6A16.533,16.533,0,0,1,116.869-826.263Zm0-2.663a14.056,14.056,0,0,0,4.635-.773,13.159,13.159,0,0,0,3.963-2.163,13.5,13.5,0,0,0-3.911-2.086,14.351,14.351,0,0,0-4.687-.748,14.585,14.585,0,0,0-4.7.739,12.878,12.878,0,0,0-3.9,2.1,13.159,13.159,0,0,0,3.963,2.163A14.056,14.056,0,0,0,116.869-828.926Zm0-15.537a3.007,3.007,0,0,0,2.216-.891,3.007,3.007,0,0,0,.891-2.216,3.007,3.007,0,0,0-.891-2.216,3.007,3.007,0,0,0-2.216-.891,3.007,3.007,0,0,0-2.216.891,3.007,3.007,0,0,0-.891,2.216,3.007,3.007,0,0,0,.891,2.216A3.007,3.007,0,0,0,116.869-844.463ZM116.869-847.571ZM116.869-831.812Z" transform="translate(-100 860)"/>
</svg>
