<svg xmlns="http://www.w3.org/2000/svg" width="11.688" height="17.532" viewBox="0 0 11.688 17.532">
  <path id="phone_iphone_16dp_E8EAED_FILL0_wght400_GRAD0_opsz20" d="M193.461-894.468a1.407,1.407,0,0,1-1.032-.429,1.407,1.407,0,0,1-.429-1.032v-14.61a1.407,1.407,0,0,1,.429-1.032,1.407,1.407,0,0,1,1.032-.429h8.766a1.407,1.407,0,0,1,1.032.429,1.407,1.407,0,0,1,.429,1.032v14.61a1.407,1.407,0,0,1-.429,1.032,1.407,1.407,0,0,1-1.032.429Zm0-4.383v2.922h8.766v-2.922Zm4.379,2.191a.717.717,0,0,0,.522-.209.7.7,0,0,0,.213-.517.717.717,0,0,0-.209-.522.7.7,0,0,0-.517-.213.717.717,0,0,0-.522.209.7.7,0,0,0-.213.517.717.717,0,0,0,.209.522A.7.7,0,0,0,197.84-896.659Zm-4.379-3.653h8.766V-908.1h-8.766Zm0-9.253h8.766v-.974h-8.766Zm0,10.714v0Zm0-10.714v0Z" transform="translate(-192 912)"/>
</svg>
