<svg xmlns="http://www.w3.org/2000/svg" width="32.907" height="34.06" viewBox="0 0 32.907 34.06">
  <path id="settings_16dp_E8EAED_FILL0_wght400_GRAD0_opsz20" d="M122.039-829.94,121.063-835a16.032,16.032,0,0,1-1.974-.931,11.433,11.433,0,0,1-1.8-1.242l-4.878,1.641-3.415-5.9,3.858-3.371q-.089-.532-.133-1.064t-.044-1.109q0-.577.044-1.109t.133-1.064L109-852.514l3.415-5.9,4.878,1.641a11.433,11.433,0,0,1,1.8-1.242,16.032,16.032,0,0,1,1.974-.931l.976-5.056h6.83l.976,5.056a16.034,16.034,0,0,1,1.974.931,11.433,11.433,0,0,1,1.8,1.242l4.878-1.641,3.415,5.9-3.858,3.371q.089.532.133,1.064t.044,1.109q0,.577-.044,1.109t-.133,1.064l3.858,3.371-3.415,5.9-4.878-1.641a11.433,11.433,0,0,1-1.8,1.242,16.034,16.034,0,0,1-1.974.931l-.976,5.056Zm2.617-3.193h1.6l.843-4.391a9.833,9.833,0,0,0,3.149-1.153,9.232,9.232,0,0,0,2.528-2.129l4.258,1.419.8-1.33-3.371-2.971a10.7,10.7,0,0,0,.421-1.574,9.169,9.169,0,0,0,.155-1.707,9.168,9.168,0,0,0-.155-1.707,10.7,10.7,0,0,0-.421-1.574l3.371-2.971-.8-1.331-4.258,1.419a9.231,9.231,0,0,0-2.528-2.129,9.834,9.834,0,0,0-3.149-1.153l-.843-4.391h-1.6l-.843,4.391a9.834,9.834,0,0,0-3.149,1.153,9.231,9.231,0,0,0-2.528,2.129l-4.257-1.419-.8,1.331,3.371,2.971a10.7,10.7,0,0,0-.421,1.574,9.169,9.169,0,0,0-.155,1.707,9.169,9.169,0,0,0,.155,1.707,10.7,10.7,0,0,0,.421,1.574l-3.371,2.971.8,1.33,4.257-1.419a9.232,9.232,0,0,0,2.528,2.129,9.833,9.833,0,0,0,3.149,1.153Zm.8-7.451a6.159,6.159,0,0,0,4.524-1.863,6.159,6.159,0,0,0,1.863-4.524,6.159,6.159,0,0,0-1.863-4.524,6.159,6.159,0,0,0-4.524-1.863,6.159,6.159,0,0,0-4.524,1.863,6.159,6.159,0,0,0-1.863,4.524,6.159,6.159,0,0,0,1.863,4.524A6.159,6.159,0,0,0,125.453-840.584ZM125.453-846.97Z" transform="translate(-109 864)"/>
</svg>
