<svg xmlns="http://www.w3.org/2000/svg" width="27.456" height="31.378" viewBox="0 0 27.456 31.378">
  <path id="share" d="M118.553-832.622a4.728,4.728,0,0,1-3.473-1.43,4.728,4.728,0,0,1-1.43-3.473,6.86,6.86,0,0,1,.163-1.185l-9.683-5.924a5.075,5.075,0,0,1-1.473.9,4.689,4.689,0,0,1-1.755.327,4.728,4.728,0,0,1-3.473-1.43A4.728,4.728,0,0,1,96-848.311a4.728,4.728,0,0,1,1.43-3.473,4.728,4.728,0,0,1,3.473-1.43,4.686,4.686,0,0,1,1.757.327,5.084,5.084,0,0,1,1.471.9l9.683-5.924a4.36,4.36,0,0,1-.123-.564,4.3,4.3,0,0,1-.041-.621,4.728,4.728,0,0,1,1.43-3.473,4.728,4.728,0,0,1,3.473-1.43,4.728,4.728,0,0,1,3.473,1.43,4.728,4.728,0,0,1,1.43,3.473,4.728,4.728,0,0,1-1.43,3.473,4.728,4.728,0,0,1-3.473,1.43,4.686,4.686,0,0,1-1.757-.327,5.083,5.083,0,0,1-1.471-.9l-9.683,5.924a4.363,4.363,0,0,1,.123.564,4.3,4.3,0,0,1,.041.621,4.3,4.3,0,0,1-.041.621,4.358,4.358,0,0,1-.123.564l9.683,5.924a5.075,5.075,0,0,1,1.473-.9,4.69,4.69,0,0,1,1.755-.327,4.728,4.728,0,0,1,3.473,1.43,4.728,4.728,0,0,1,1.43,3.473,4.728,4.728,0,0,1-1.43,3.473A4.728,4.728,0,0,1,118.553-832.622Zm0-2.942a1.9,1.9,0,0,0,1.4-.564,1.9,1.9,0,0,0,.564-1.4,1.9,1.9,0,0,0-.564-1.4,1.9,1.9,0,0,0-1.4-.564,1.9,1.9,0,0,0-1.4.564,1.9,1.9,0,0,0-.564,1.4,1.9,1.9,0,0,0,.564,1.4A1.9,1.9,0,0,0,118.553-835.564ZM100.9-846.35a1.9,1.9,0,0,0,1.4-.564,1.9,1.9,0,0,0,.564-1.4,1.9,1.9,0,0,0-.564-1.4,1.9,1.9,0,0,0-1.4-.564,1.9,1.9,0,0,0-1.4.564,1.9,1.9,0,0,0-.564,1.4,1.9,1.9,0,0,0,.564,1.4A1.9,1.9,0,0,0,100.9-846.35Zm17.65-10.786a1.9,1.9,0,0,0,1.4-.564,1.9,1.9,0,0,0,.564-1.4,1.9,1.9,0,0,0-.564-1.4,1.9,1.9,0,0,0-1.4-.564,1.9,1.9,0,0,0-1.4.564,1.9,1.9,0,0,0-.564,1.4,1.9,1.9,0,0,0,.564,1.4A1.9,1.9,0,0,0,118.553-857.136ZM118.553-837.525ZM100.9-848.311ZM118.553-859.1Z" transform="translate(-96 864)" fill="#0d0d0d"/>
</svg>
