<svg xmlns="http://www.w3.org/2000/svg" width="115.361" height="115.446" viewBox="0 0 115.361 115.446"><g transform="translate(3.808 11.423)" fill="#fff" stroke="#f7f7f7" stroke-width="1"><rect width="109.531" height="101.922" stroke="none"/><rect x="0.5" y="0.5" width="108.531" height="100.922" fill="none"/></g><path d="M24.115,0,48.231,35.538H0Z" transform="translate(82.095 38.077) rotate(180)" fill="#fff"/><path d="M34.093.446a54.631,54.631,0,0,0,3.489,5.794l3.477,5.348H74.294l3.477-5.348A54.634,54.634,0,0,0,81.26.446C81.267.2,70.654,0,57.677,0S34.087.2,34.093.446M25.6,9.429,20.77,18.257l4.124,15.086c2.268,8.3,4.343,15.308,4.61,15.579.421.426,22.9-9.606,24.5-10.934.51-.423-20.779-34.6-22.826-36.647C30.612.775,29.3,2.674,25.6,9.429M83.736,1.812C81.606,4.866,61.591,36.192,61.241,37.02c-.428,1.011,23.806,12.719,24.616,11.893.261-.266,2.345-7.254,4.63-15.528L94.643,18.34,89.7,9.349C84.815.473,84.738.375,83.736,1.812M0,62.988V115.28l51.286.071c28.207.039,54.088.076,57.513.083l6.226.012.167-52.375.168-52.375H104.542a103.917,103.917,0,0,0-10.818.284A33.11,33.11,0,0,0,95.5,14.545l1.775,3.282h10.213v90.322H7.865V17.827H18.078l1.775-3.282a33.108,33.108,0,0,0,1.775-3.565A103.848,103.848,0,0,0,10.814,10.7H0V62.988" transform="translate(0 0)" fill="#ed1d24" fill-rule="evenodd"/><text transform="translate(13.68 79)" fill="#ed1d24" font-size="20" font-family="Poppins-Bold, Poppins" font-weight="700"><tspan x="0" y="0">StyleZen</tspan></text></svg>